<?xml version="1.0" encoding="UTF-8"?>
<svg xmlns="http://www.w3.org/2000/svg" xmlns:xlink="http://www.w3.org/1999/xlink" width="23px" height="23px" viewBox="0 0 23 23" version="1.1">
<g id="surface1">
<path style=" stroke:none;fill-rule:nonzero;fill:rgb(12.941176%,12.941176%,12.941176%);fill-opacity:1;" d="M 1.4375 6.46875 C 1.4375 4.484375 3.046875 2.875 5.03125 2.875 L 17.96875 2.875 C 19.953125 2.875 21.5625 4.484375 21.5625 6.46875 L 21.5625 13.65625 C 21.5625 15.640625 19.953125 17.25 17.96875 17.25 L 12.488281 17.25 L 8.085938 21.101562 C 7.175781 21.898438 5.75 21.253906 5.75 20.042969 L 5.75 17.25 L 5.03125 17.25 C 3.046875 17.25 1.4375 15.640625 1.4375 13.65625 Z M 5.03125 4.3125 C 3.839844 4.3125 2.875 5.277344 2.875 6.46875 L 2.875 13.65625 C 2.875 14.847656 3.839844 15.8125 5.03125 15.8125 L 7.1875 15.8125 L 7.1875 19.980469 L 11.949219 15.8125 L 17.96875 15.8125 C 19.160156 15.8125 20.125 14.847656 20.125 13.65625 L 20.125 6.46875 C 20.125 5.277344 19.160156 4.3125 17.96875 4.3125 Z M 5.03125 4.3125 "/>
</g>
</svg>
